<svg xmlns="http://www.w3.org/2000/svg" width="512" height="512" viewBox="0 0 512 512"><rect width="512" height="512" y="-2.8422e-14" fill="#edc53f" ry="79.892487"/><path fill="#fff" d="M154.443 307.541H79.99v-16.947c13.353-13.35 52.009-43.365 48.042-60.638-5.242-16.534-28.187-5.297-31.568 2.25L80.07 219.679c16.905-26.073 69.202-23.07 70.687 10.514.228 26.544-26.16 42.82-41.547 57.46v1.018h45.233zm94.201-51.336c.108 30.607-8.73 53.734-39.3 53.93-32.567-.061-40.208-23.454-40.097-53.739-.111-30.345 8.16-53.897 40.098-53.955 30.832.058 39.192 23.645 39.3 53.764zm-57.572.191c.198 11.993 1.153 35.181 17.89 35.347 16.564.19 17.943-24.552 17.985-35.538-.216-11.93-.832-34.99-17.793-35.106-17.234-.314-17.968 23.83-18.082 35.297zm204.38-53.968c14.547.077 34.901 6.357 34.916 25.264-.015 14.947-6.229 18.31-18.158 24.828 13.132 7.928 21.39 13.843 21.543 29.425-.154 20.405-19.886 27.769-38.303 27.905-19.393-.136-38.52-7.057-38.816-28.199.305-15.254 9.25-23.895 18.949-28.776-11.077-6.792-16.27-10.301-15.997-25.327-.273-18.614 20.168-25.042 35.864-25.12zm-17.978 77.392c-.074 9.7 8.014 13.216 17.766 13.133 9.395.083 16.507-3.832 16.623-12.232.082-14.109-16.613-20.273-16.613-20.273s-17.851 6.166-17.776 19.372zm17.819-59.703c-8.189-.068-15.618 1.775-15.657 9.69.04 9.215 15.493 15.537 15.493 15.537s14.217-6.237 14.437-16.188c-.328-7.257-6.5-9.109-14.273-9.039zm-50.17 70.136H331.86v17.217h-19.643v-17.204h-51.303V271.26l50.06-66.309h20.886v67.885h13.261zm-32.905-57.554-30.785 40.136h30.785z"/></svg>