<svg width="1280" height="720" viewBox="0 0 1280 720" fill="none" xmlns="http://www.w3.org/2000/svg">
<rect width="1280" height="720" rx="40" fill="#FFEF6D"/>
<path d="M456.083 408.167C457.373 408.167 458.652 408.151 459.941 408.109L460.123 408.083C463.373 407.641 466.493 407.21 469.447 406.763C485.374 404.579 493.6 402.327 493.6 396.623C493.6 390.919 485.374 388.667 469.447 386.483C466.503 386.031 463.378 385.61 460.134 385.168L460.129 385.157C448.304 383.546 434.909 381.715 422.986 377.873C408.037 372.849 395.49 364.587 395.49 350.454C395.49 336.321 408.037 328.053 422.986 323.035C434.909 319.193 448.304 317.357 460.123 315.745C463.373 315.303 466.493 314.872 469.447 314.424C485.374 312.235 493.6 309.984 493.6 304.285C493.6 298.575 485.374 296.324 469.447 294.14C466.493 293.688 463.373 293.266 460.123 292.819C448.304 291.202 434.909 289.366 422.986 285.534C408.037 280.506 395.49 272.243 395.49 258.116C395.49 243.977 408.037 235.715 422.986 230.692C434.909 226.849 448.304 225.019 460.123 223.402C463.373 222.96 466.493 222.528 469.447 222.081C485.374 219.892 493.6 217.64 493.6 211.941C493.6 206.237 485.374 203.986 469.447 201.796C466.493 201.349 463.373 200.928 460.123 200.476C448.304 198.864 434.909 197.028 422.986 193.191C411.526 189.338 401.469 183.581 397.408 174.721C358.472 195.661 332 236.786 332 284.083C332 352.617 387.55 408.167 456.083 408.167Z" fill="#8170B2"/>
<path d="M456.084 160C524.622 160 580.172 215.555 580.172 284.083C580.172 330.726 554.438 371.352 516.396 392.546C513.141 370.327 482.826 365.585 451.435 360.661L451.425 360.661C448.175 360.157 444.904 359.647 441.654 359.111C429.102 357.047 424.344 354.889 424.344 350.454C424.344 346.008 429.102 343.855 441.654 341.796C444.914 341.26 448.175 340.751 451.435 340.241C484.651 335.041 516.682 330.024 516.682 304.285C516.682 278.545 484.651 273.522 451.435 268.323C448.18 267.813 444.914 267.303 441.654 266.773C429.102 264.704 424.344 262.551 424.344 258.115C424.344 253.67 429.102 251.517 441.654 249.458C444.914 248.917 448.18 248.413 451.435 247.898C484.651 242.698 516.682 237.68 516.682 211.941C516.682 186.202 484.651 181.179 451.435 175.979C448.18 175.475 444.914 174.96 441.654 174.43C429.102 172.365 424.344 170.207 424.344 165.772C424.344 165.143 424.437 164.56 424.635 164.02C434.676 161.399 445.221 160 456.084 160Z" fill="#8170B2"/>
<path d="M668.97 194.63C668.97 188.255 674.138 183.081 680.513 183.081C686.888 183.081 692.052 188.255 692.052 194.63V373.534C692.052 379.915 686.888 385.073 680.513 385.073C674.138 385.073 668.97 379.915 668.97 373.534V194.63Z" fill="#8170B2"/>
<path d="M614.643 198.018C616.868 195.792 619.619 194.632 622.9 194.632C626.077 194.632 628.833 195.792 630.95 198.018C633.175 200.243 634.345 202.89 634.345 206.067C634.345 209.348 633.175 212.099 630.95 214.324C628.724 216.55 626.077 217.709 622.9 217.709C619.619 217.709 616.868 216.55 614.643 214.324C612.417 212.099 611.258 209.348 611.258 206.067C611.258 202.994 612.417 200.243 614.643 198.018Z" fill="#8170B2"/>
<path d="M611.257 252.343C611.257 245.968 616.425 240.794 622.8 240.794C629.17 240.794 634.339 245.968 634.339 252.343V373.535C634.339 379.916 629.17 385.074 622.8 385.074C616.425 385.074 611.257 379.916 611.257 373.535V252.343Z" fill="#8170B2"/>
<path d="M726.683 194.63C726.683 188.255 731.851 183.081 738.226 183.081C744.596 183.081 749.765 188.255 749.765 194.63V373.534C749.765 379.915 744.596 385.073 738.226 385.073C731.851 385.073 726.683 379.915 726.683 373.534V194.63Z" fill="#8170B2"/>
<path d="M796.042 194.63C792.756 194.63 790.011 195.795 787.785 198.015C785.554 200.241 784.39 202.997 784.39 206.064C784.39 209.346 785.554 212.101 787.785 214.322C790.011 216.547 792.756 217.712 796.042 217.712C799.214 217.712 801.866 216.547 804.092 214.322C806.317 212.101 807.482 209.346 807.482 206.064C807.482 202.887 806.317 200.241 804.092 198.015C801.975 195.795 799.214 194.63 796.042 194.63Z" fill="#8170B2"/>
<path d="M784.394 252.343C784.394 245.968 789.563 240.794 795.938 240.794C802.308 240.794 807.476 245.968 807.476 252.343V373.535C807.476 379.916 802.308 385.074 795.938 385.074C789.563 385.074 784.394 379.916 784.394 373.535V252.343Z" fill="#8170B2"/>
<path d="M859.517 333.989H937.878C940.8 333.989 943.296 333.053 945.179 331.192C946.946 329.44 947.882 327.375 948.096 324.89C947.498 294.57 923.771 266.974 892.447 266.974C872.641 266.974 853.558 278.247 844.094 295.625C839.024 304.917 836.695 315.572 836.695 326.127C836.695 337.4 839.3 347.644 844.51 356.536C854.463 373.472 872.537 385.078 892.447 385.078C901.386 385.078 909.939 384.334 918.503 381.453C925.695 379.082 931.732 375.879 936.531 372.151C939.048 370.227 940.488 367.372 940.488 364.19C940.488 359.723 937.509 355.943 933.417 354.695C929.09 353.38 925.487 355.496 922.143 357.981C915.503 363.166 906.128 365.947 897.761 365.947C887.133 365.947 878.07 362.947 870.67 356.947C864.103 351.674 859.834 344.743 857.853 336.371C857.468 335.055 858.024 334.14 859.517 333.989ZM892.447 286.104C909.534 286.104 923.708 297.481 926.319 311.547C926.319 311.656 926.21 315.161 922.455 315.993C902.613 315.993 882.734 315.707 862.891 315.982C858.794 316.04 858.394 311.682 859.298 308.671C863.094 295.953 876.52 286.104 892.447 286.104Z" fill="#8170B2"/>
<path d="M572.843 559.89H581.576V479.355H572.843V559.89Z" fill="#8170B2"/>
<path d="M553.612 481.474H513.491V489.305H544.879V513.542H513.491V555.926H560.202V548.094H522.216V521.373H553.612V481.474Z" fill="#8170B2"/>
<path fill-rule="evenodd" clip-rule="evenodd" d="M640.672 511.33C641.843 508.561 642.436 505.555 642.436 502.288C642.436 499.1 641.843 496.118 640.672 493.365C639.557 490.597 637.943 488.232 635.847 486.262C633.798 484.237 631.322 482.671 628.411 481.563C625.5 480.4 622.313 479.815 618.84 479.815C615.32 479.815 612.1 480.4 609.189 481.563C606.334 482.671 603.866 484.237 601.754 486.262C599.713 488.232 598.099 490.597 596.928 493.365C595.813 496.118 595.259 499.1 595.259 502.288C595.259 505.555 595.813 508.561 596.928 511.33C598.099 514.098 599.713 516.456 601.754 518.417C603.866 520.45 606.334 522.017 609.189 523.116C612.1 524.224 615.32 524.777 618.84 524.777C622.313 524.777 625.5 524.224 628.411 523.116C631.322 522.017 633.798 520.45 635.847 518.417C637.943 516.456 639.557 514.098 640.672 511.33ZM629.709 491.886C632.375 494.766 633.703 498.246 633.703 502.288C633.703 506.417 632.375 509.914 629.709 512.801C627.051 515.625 623.428 517.041 618.84 517.041C614.197 517.041 610.55 515.625 607.884 512.801C605.282 509.914 603.984 506.417 603.984 502.288C603.984 498.246 605.282 494.766 607.884 491.886C610.55 488.999 614.197 487.551 618.84 487.551C623.428 487.551 627.051 488.999 629.709 491.886Z" fill="#8170B2"/>
<path fill-rule="evenodd" clip-rule="evenodd" d="M474.425 501.215C475.374 499.203 475.855 497.018 475.855 494.644C475.855 492.327 475.374 490.16 474.425 488.16C473.521 486.148 472.214 484.429 470.515 482.997C468.854 481.526 466.847 480.387 464.488 479.583C462.129 478.738 459.545 478.312 456.73 478.312C453.877 478.312 451.268 478.738 448.909 479.583C446.594 480.387 444.594 481.526 442.882 482.997C441.228 484.429 439.92 486.148 438.971 488.16C438.067 490.16 437.618 492.327 437.618 494.644C437.618 497.018 438.067 499.203 438.971 501.215C439.92 503.227 441.228 504.94 442.882 506.365C444.594 507.843 446.594 508.981 448.909 509.78C451.268 510.585 453.877 510.987 456.73 510.987C459.545 510.987 462.129 510.585 464.488 509.78C466.847 508.981 468.854 507.843 470.515 506.365C472.214 504.94 473.521 503.227 474.425 501.215ZM465.539 487.085C467.7 489.177 468.777 491.706 468.777 494.644C468.777 497.645 467.7 500.186 465.539 502.284C463.385 504.336 460.449 505.365 456.73 505.365C452.967 505.365 450.011 504.336 447.851 502.284C445.741 500.186 444.69 497.645 444.69 494.644C444.69 491.706 445.741 489.177 447.851 487.085C450.011 484.986 452.967 483.934 456.73 483.934C460.449 483.934 463.385 484.986 465.539 487.085Z" fill="#8170B2"/>
<path d="M655.53 559.89H664.263V479.355H655.53V559.89Z" fill="#8170B2"/>
<path d="M649.589 548.096H592.192V555.927H649.589V548.096Z" fill="#8170B2"/>
<path d="M831.354 479.72V511.789H841.843V479.356H850.576V559.891H841.843V519.62H831.354V558.966H822.621V479.72H831.354Z" fill="#8170B2"/>
<path d="M733.333 511.601H759.16V479.359H767.885V559.886H759.16V519.345H733.333V511.601Z" fill="#8170B2"/>
<path d="M792.976 489.307H782.036V481.475H816.953V489.307H801.551C801.456 491.933 801.346 494.567 801.203 496.434C800.895 500.547 800.491 504.51 800.001 508.315C801.978 515.877 804.794 523.147 808.449 530.155C811.676 536.302 815.45 541.799 819.753 546.648L813.709 552.811C810.49 549.148 807.531 545.074 804.826 540.565C801.725 535.345 799.123 530.061 797.026 524.721C795.729 530.061 794.139 535.345 792.288 540.565C790.168 546.53 787.874 551.387 783.444 558.103L776.001 553.356C782.622 543.223 786.996 531.033 789.314 519.287C791.355 510.641 792.644 499.424 792.976 489.307Z" fill="#8170B2"/>
<path d="M720.147 495.479C720.455 491.358 720.637 483.495 720.7 480.181H711.975C712.252 491.975 710.876 507.266 708.257 518.332C705.94 530.079 701.565 542.277 694.936 552.394L702.388 557.148C706.818 550.424 709.104 545.583 711.232 539.611C713.083 534.398 714.673 529.114 715.97 523.767C718.066 529.114 720.669 534.398 723.77 539.611C726.87 544.768 730.296 549.38 734.085 553.438L737.059 556.65L743.34 550.424L740.397 547.537C735.382 542.253 731.047 536.146 727.392 529.209C723.738 522.2 720.922 514.923 718.944 507.368C719.435 503.556 719.838 499.6 720.147 495.479Z" fill="#8170B2"/>
<path d="M498.513 524.023H488.769V478.312H498.513V524.023ZM501.23 553.051V560H442.111V540.12H488.957V534.139H441.924V527.366H451.855V519.537H440.565H429.275V513.292H442.017C446.515 513.292 455.977 513.292 455.977 513.292H469.844H483.71V519.537H472.9H461.599V527.366H498.513V546.542H451.668V553.051H501.23Z" fill="#8170B2"/>
</svg>
